<svg xmlns="http://www.w3.org/2000/svg" xmlns:xlink="http://www.w3.org/1999/xlink" viewBox="0 0 48 48" width="48" height="48" preserveAspectRatio="xMidYMid meet" style="width: 100%; height: 100%; transform: translate3d(0px, 0px, 0px); content-visibility: visible;"><defs><clipPath id="__lottie_element_10"><rect width="48" height="48" x="0" y="0"></rect></clipPath></defs><g clip-path="url(#__lottie_element_10)"><animateTransform attributeType="XML" attributeName="transform" type="rotate" values="-5 24 24; 5 24 24; -5 24 24;" dur="3s" repeatCount="indefinite"/><g transform="matrix(1,0,0,1,0,0)" opacity="1" style="display: block;"><g opacity="1" transform="matrix(1,0,0,1,24,24)"><path fill="rgb(255,87,34)" fill-opacity="1" d=" M16,21 C16,21 -16,21 -16,21 C-16,21 -16,-21 -16,-21 C-16,-21 6,-21 6,-21 C6,-21 16,-11 16,-11 C16,-11 16,21 16,21z"></path></g><g opacity="1" transform="matrix(1,0,0,1,33.75,9.25)"><path fill="rgb(251,233,231)" fill-opacity="1" d=" M4.75,4.75 C4.75,4.75 -4.75,4.75 -4.75,4.75 C-4.75,4.75 -4.75,-4.75 -4.75,-4.75 C-4.75,-4.75 4.75,4.75 4.75,4.75z"></path></g></g><g transform="matrix(1,0,0,1,24,24)" opacity="1" style="display: block;"><g opacity="1" transform="matrix(1,0,0,1,0,0)"><path fill="rgb(255,255,255)" fill-opacity="1" d=" M-8,15 C-8.399999618530273,15 -8.699999809265137,14.899999618530273 -9,14.800000190734863 C-10.100000381469727,14.199999809265137 -10.199999809265137,13.300000190734863 -10,12.600000381469727 C-9.600000381469727,11.399999618530273 -7.400000095367432,9.899999618530273 -4.5,8.600000381469727 C-4.5,8.600000381469727 -4.5,8.600000381469727 -4.5,8.600000381469727 C-3.200000047683716,6.199999809265137 -2.200000047683716,3.700000047683716 -1.600000023841858,1.600000023841858 C-2.5999999046325684,-0.30000001192092896 -3.0999999046325684,-2.0999999046325684 -3.0999999046325684,-3.4000000953674316 C-3.0999999046325684,-4.099999904632568 -2.9000000953674316,-4.699999809265137 -2.5999999046325684,-5.199999809265137 C-2.200000047683716,-5.699999809265137 -1.600000023841858,-6 -0.800000011920929,-6 C0.10000000149011612,-6 0.800000011920929,-5.5 1.100000023841858,-4.599999904632568 C1.600000023841858,-3.4000000953674316 1.2999999523162842,-1.2000000476837158 0.6000000238418579,1.2999999523162842 C1.600000023841858,3 2.799999952316284,4.599999904632568 4.099999904632568,5.800000190734863 C6,5.400000095367432 7.699999809265137,5.199999809265137 8.800000190734863,5.400000095367432 C10.699999809265137,5.699999809265137 11,7 11,7.5 C11,9.600000381469727 8.800000190734863,9.600000381469727 8,9.600000381469727 C6.5,9.600000381469727 5,9 3.700000047683716,7.900000095367432 C3.700000047683716,7.900000095367432 3.700000047683716,7.900000095367432 3.700000047683716,7.900000095367432 C1.2999999523162842,8.5 -1.100000023841858,9.300000190734863 -3,10.199999809265137 C-4,11.899999618530273 -5,13.300000190734863 -5.900000095367432,14.100000381469727 C-6.800000190734863,14.800000190734863 -7.5,15 -8,15z M-6.800000190734863,12.100000381469727 C-7.300000190734863,12.399999618530273 -7.699999809265137,12.699999809265137 -7.900000095367432,13 C-7.699999809265137,12.899999618530273 -7.300000190734863,12.699999809265137 -6.800000190734863,12.100000381469727z M6.800000190734863,7.400000095367432 C7.199999809265137,7.5 7.599999904632568,7.599999904632568 8,7.599999904632568 C8.600000381469727,7.599999904632568 8.899999618530273,7.5 9,7.5 C9,7.5 9,7.5 9,7.5 C8.899999618530273,7.400000095367432 8.199999809265137,7.199999809265137 6.800000190734863,7.400000095367432z M-0.20000000298023224,3.799999952316284 C-0.6000000238418579,5 -1.2000000476837158,6.300000190734863 -1.7000000476837158,7.5 C-0.5,7.099999904632568 0.699999988079071,6.699999809265137 1.899999976158142,6.400000095367432 C1.100000023841858,5.599999904632568 0.4000000059604645,4.699999809265137 -0.20000000298023224,3.799999952316284z M-0.800000011920929,-4 C-0.8999999761581421,-4 -0.8999999761581421,-4 -0.8999999761581421,-4 C-1,-3.9000000953674316 -1.100000023841858,-3.200000047683716 -0.699999988079071,-1.7000000476837158 C-0.6000000238418579,-2.9000000953674316 -0.6000000238418579,-3.799999952316284 -0.800000011920929,-4z"></path></g></g></g></svg>