<?xml version="1.0" encoding="UTF-8" standalone="no"?>
<svg
   version="1.2"
   viewBox="0 0 723.60352 722.28564"
   width="723.60352"
   height="722.28564"
   id="svg1"
   sodipodi:docname="ybg-logo.svg"
   inkscape:version="1.4.2 (f4327f4, 2025-05-13)"
   xmlns:inkscape="http://www.inkscape.org/namespaces/inkscape"
   xmlns:sodipodi="http://sodipodi.sourceforge.net/DTD/sodipodi-0.dtd"
   xmlns="http://www.w3.org/2000/svg"
   xmlns:svg="http://www.w3.org/2000/svg">
  <defs
     id="defs1">
    <rect
       x="297.06073"
       y="468.74509"
       width="171.19173"
       height="48.278526"
       id="rect1" />
  </defs>
  <sodipodi:namedview
     id="namedview1"
     pagecolor="#505050"
     bordercolor="#eeeeee"
     borderopacity="1"
     inkscape:showpageshadow="0"
     inkscape:pageopacity="0"
     inkscape:pagecheckerboard="0"
     inkscape:deskcolor="#505050"
     inkscape:zoom="0.71767375"
     inkscape:cx="197.86149"
     inkscape:cy="390.84612"
     inkscape:window-width="1920"
     inkscape:window-height="1017"
     inkscape:window-x="-8"
     inkscape:window-y="1072"
     inkscape:window-maximized="1"
     inkscape:current-layer="svg1" />
  <style
     id="style1">
		.s0 { fill: #ffd700 } 
		.s1 { fill: #000000 } 
	</style>
  <g
     id="Background"
     transform="translate(-30.099823,-33.181305)">
    <path
       id="Path 1"
       class="s0"
       d="m 373.5,32.59 c -2.75,0.21 -10.18,0.88 -16.5,1.48 -6.32,0.59 -18.02,2.18 -26,3.53 -7.98,1.34 -20.8,4.07 -28.5,6.05 -7.7,1.99 -20.3,5.76 -28,8.39 -7.7,2.63 -18.95,6.89 -25,9.47 -6.05,2.58 -16.18,7.33 -22.5,10.56 -6.32,3.22 -16.45,8.84 -22.5,12.48 -6.05,3.64 -15.91,10.07 -21.9,14.29 -6,4.21 -16.46,12.27 -23.25,17.91 -6.79,5.64 -17.64,15.54 -24.1,22 -6.47,6.46 -16.09,16.93 -21.39,23.25 -5.3,6.32 -13.34,16.68 -17.86,23 -4.53,6.32 -11.78,17.46 -16.11,24.75 -4.34,7.29 -10.09,17.64 -12.78,23 -2.68,5.36 -7,14.7 -9.59,20.75 -2.59,6.05 -6.85,17.3 -9.48,25 -2.63,7.7 -6.4,20.3 -8.39,28 -1.98,7.7 -4.71,20.52 -6.05,28.5 -1.34,7.98 -3.01,19.68 -3.71,26 -0.7,6.32 -1.27,22.3 -1.27,35.5 0,13.2 0.57,29.18 1.27,35.5 0.7,6.32 2.37,18.02 3.71,26 1.34,7.98 4.07,20.8 6.05,28.5 1.99,7.7 5.76,20.3 8.39,28 2.62,7.7 7.08,19.4 9.91,26 2.83,6.6 7.98,17.4 11.45,24 3.47,6.6 9.34,16.95 13.04,23 3.7,6.05 9.94,15.5 13.87,21 3.93,5.5 11.54,15.29 16.92,21.75 5.37,6.46 15.06,17.04 21.52,23.5 6.46,6.47 16.93,16.09 23.25,21.39 6.32,5.3 16.68,13.34 23,17.86 6.32,4.53 17.46,11.78 24.75,16.11 7.29,4.34 17.64,10.09 23,12.78 5.36,2.68 14.7,7 20.75,9.59 6.05,2.59 17.3,6.85 25,9.48 7.7,2.63 20.3,6.4 28,8.39 7.7,1.98 20.52,4.71 28.5,6.05 7.98,1.34 19.68,3.01 26,3.72 6.32,0.7 22.3,1.28 35.5,1.28 13.2,0 29.18,-0.58 35.5,-1.28 6.32,-0.71 17.8,-2.34 25.5,-3.63 7.7,-1.29 20.3,-3.93 28,-5.87 7.7,-1.94 20.52,-5.76 28.5,-8.48 7.98,-2.72 19.9,-7.27 26.5,-10.1 6.6,-2.84 16.95,-7.72 23,-10.87 6.05,-3.14 15.86,-8.62 21.8,-12.19 5.93,-3.56 16.14,-10.31 22.67,-14.98 6.54,-4.67 16.53,-12.36 22.21,-17.08 5.67,-4.72 15.53,-13.72 21.89,-20 6.37,-6.28 15.09,-15.47 19.38,-20.42 4.3,-4.95 11.85,-14.4 16.78,-21 4.93,-6.6 12.39,-17.4 16.58,-24 4.19,-6.6 11.5,-19.65 16.24,-29 4.74,-9.35 10.92,-22.85 13.72,-30 2.81,-7.15 6.28,-16.6 7.71,-21 1.44,-4.4 3.75,-12.05 5.15,-17 1.39,-4.95 3.64,-14.18 5,-20.5 1.36,-6.32 3.35,-17.35 4.41,-24.5 1.06,-7.15 2.47,-21.77 3.14,-32.5 0.94,-15.25 0.95,-23.75 0,-39 -0.66,-10.73 -2.07,-25.35 -3.14,-32.5 -1.06,-7.15 -3.05,-18.18 -4.41,-24.5 -1.36,-6.32 -3.61,-15.55 -4.99,-20.5 -1.39,-4.95 -3.94,-13.27 -5.68,-18.5 -1.74,-5.23 -5.61,-15.57 -8.62,-23 -3,-7.43 -8.95,-20.25 -13.22,-28.5 -4.27,-8.25 -11.17,-20.4 -15.34,-27 -4.17,-6.6 -11.62,-17.4 -16.55,-24 -4.93,-6.6 -12.5,-16.05 -16.81,-21 -4.31,-4.95 -12.13,-13.29 -17.38,-18.54 -5.25,-5.25 -13.59,-13.07 -18.54,-17.38 -4.95,-4.31 -14.4,-11.88 -21,-16.81 C 603.9,99.84 593.33,92.53 587,88.52 580.67,84.51 569.42,78.05 562,74.17 554.58,70.28 543.1,64.78 536.5,61.95 529.9,59.12 517.98,54.58 510,51.85 c -7.98,-2.73 -20.57,-6.49 -28,-8.36 -7.43,-1.87 -18.68,-4.32 -25,-5.44 -6.32,-1.12 -17.35,-2.72 -24.5,-3.56 -7.15,-0.84 -22.23,-1.7 -33.5,-1.9 -11.27,-0.21 -22.75,-0.21 -25.5,0 z"
       style="display:none" />
    <path
       id="Path 2"
       class="s1"
       d="m 369,43.06 c -6.32,0.43 -16.9,1.51 -23.5,2.4 -6.6,0.9 -17.63,2.78 -24.5,4.18 -6.88,1.4 -19.25,4.51 -27.5,6.91 -8.25,2.4 -20.18,6.34 -26.5,8.77 -6.32,2.42 -16.68,6.77 -23,9.66 -6.32,2.9 -17.13,8.42 -24,12.26 -6.88,3.85 -16.78,9.82 -22,13.27 -5.22,3.45 -13.55,9.32 -18.5,13.04 -4.95,3.72 -13.05,10.24 -18,14.49 -4.95,4.25 -15.3,14.19 -23.01,22.09 -7.7,7.91 -17.4,18.65 -21.56,23.87 -4.16,5.22 -10.73,14 -14.61,19.5 -3.89,5.5 -9.89,14.72 -13.35,20.5 -3.47,5.78 -9.34,16.57 -13.05,24 -3.71,7.43 -8.77,18.45 -11.25,24.5 -2.47,6.05 -6.14,15.95 -8.17,22 -2.02,6.05 -5.23,17.07 -7.13,24.5 -1.9,7.43 -4.53,19.8 -5.83,27.5 -1.31,7.7 -2.94,19.18 -3.63,25.5 -0.69,6.32 -1.26,21.85 -1.26,34.5 0,12.65 0.57,28.18 1.26,34.5 0.69,6.32 2.32,17.8 3.63,25.5 1.3,7.7 3.93,20.07 5.83,27.5 1.9,7.43 5.11,18.45 7.13,24.5 2.03,6.05 5.71,15.95 8.18,22 2.48,6.05 7.43,16.85 11.01,24 3.58,7.15 8.9,17.05 11.82,22 2.92,4.95 7.94,12.91 11.15,17.68 3.21,4.77 10.1,14.22 15.31,21 5.55,7.22 17.13,20 28,30.89 10.19,10.21 22.81,21.93 28.03,26.06 5.22,4.12 14,10.67 19.5,14.55 5.5,3.89 14.72,9.89 20.5,13.36 5.78,3.46 16.57,9.34 24,13.06 7.43,3.71 18.45,8.78 24.5,11.25 6.05,2.46 16.63,6.34 23.5,8.61 6.87,2.26 18.8,5.66 26.5,7.53 7.7,1.88 18.05,4.11 23,4.95 4.95,0.84 14.62,2.17 21.5,2.97 6.87,0.79 19.48,1.74 28,2.1 8.85,0.39 22.58,0.2 32,-0.44 9.07,-0.61 22.8,-2.03 30.5,-3.14 7.7,-1.12 18.95,-3.14 25,-4.5 6.05,-1.36 15.95,-3.85 22,-5.55 6.05,-1.69 16.85,-5.25 24,-7.91 7.15,-2.65 18.4,-7.27 25,-10.25 6.6,-2.98 17.85,-8.68 25,-12.67 7.15,-3.99 18.63,-11 25.5,-15.58 6.87,-4.58 17.45,-12.29 23.5,-17.13 6.05,-4.84 17.69,-15.33 25.87,-23.32 8.18,-7.98 19.22,-19.69 24.53,-26.02 5.31,-6.33 12.87,-16 16.79,-21.5 3.93,-5.5 10.81,-16.08 15.3,-23.5 4.49,-7.42 11.01,-19.35 14.48,-26.5 3.47,-7.15 8.8,-19.3 11.83,-27 3.02,-7.7 6.88,-18.5 8.56,-24 1.68,-5.5 4.43,-15.63 6.1,-22.5 1.67,-6.88 4.15,-19.7 5.5,-28.5 1.35,-8.8 2.98,-23.65 3.62,-33 0.66,-9.82 0.87,-23.34 0.49,-32 -0.37,-8.25 -1.11,-19.5 -1.65,-25 -0.54,-5.5 -2.11,-16.52 -3.49,-24.5 -1.38,-7.98 -3.88,-19.9 -5.55,-26.5 -1.66,-6.6 -5.02,-17.96 -7.45,-25.25 -2.44,-7.29 -7.17,-19.66 -10.51,-27.5 -3.34,-7.84 -8.6,-18.97 -11.67,-24.75 -3.08,-5.78 -8.48,-15.22 -12.01,-21 -3.52,-5.78 -9.62,-15 -13.55,-20.5 -3.94,-5.5 -10.5,-14.05 -14.58,-19 -4.09,-4.95 -13.55,-15.23 -21.02,-22.85 -7.47,-7.61 -18.76,-18.2 -25.09,-23.52 -6.33,-5.33 -16,-12.9 -21.5,-16.82 C 593,104.38 582.42,97.5 575,93.01 567.58,88.52 555.65,82 548.5,78.53 c -7.15,-3.47 -19.3,-8.81 -27,-11.85 -7.7,-3.05 -20.07,-7.32 -27.5,-9.49 -7.43,-2.17 -18.68,-5.1 -25,-6.51 -6.32,-1.42 -17.8,-3.49 -25.5,-4.6 -7.7,-1.12 -20.75,-2.48 -29,-3.04 -8.25,-0.55 -19.27,-0.95 -24.5,-0.88 -5.23,0.07 -14.68,0.48 -21,0.9 z"
       style="display:inline" />
    <path
       id="Path 3"
       class="s0"
       d="m 128.24,270.75 c 0.35,55.1 0.6,63.45 2.08,68.5 0.92,3.16 2.8,8 4.18,10.75 1.37,2.75 4.64,7.14 7.26,9.75 2.62,2.61 6.78,5.74 9.25,6.96 2.47,1.21 7.19,2.9 10.49,3.76 3.3,0.86 9.04,1.89 12.75,2.29 l 6.75,0.74 0.5,91 h 82 l 1,-90.9 c 12.4,-1.78 18.48,-3.02 21.5,-3.9 3.02,-0.88 7.71,-3.09 10.42,-4.9 2.71,-1.82 6.44,-5.1 8.3,-7.3 1.86,-2.2 4.45,-6.25 5.76,-9 1.31,-2.75 3.1,-9.05 3.96,-14 1.32,-7.52 1.58,-18.68 1.57,-67.75 L 316,208 H 232 V 313 L 212.5,312.5 212.03,208 h -84.18 z m 207.5,30.5 c -0.33,25.65 -0.77,34.39 -1.93,38.25 -0.82,2.75 -2.47,7.14 -3.65,9.75 -1.19,2.61 -4.64,7.23 -7.66,10.25 -3.03,3.02 -7.86,6.61 -10.75,7.97 -2.89,1.36 -8.18,3.07 -11.75,3.79 l -6.5,1.33 L 293,525 c 140.87,0 155.06,-0.25 160.25,-1.46 3.44,-0.8 7.94,-2.15 10,-3 2.06,-0.85 5.6,-3.23 7.87,-5.29 2.27,-2.06 5.08,-5.55 6.25,-7.75 2.07,-3.89 2.14,-5.29 2.42,-49.5 0.25,-38.97 0.07,-46.11 -1.25,-49.75 -0.89,-2.44 -2.92,-5.28 -4.79,-6.68 -1.79,-1.33 -4.49,-2.91 -6,-3.5 -1.51,-0.59 -2.76,-1.41 -2.78,-1.82 -0.02,-0.41 1.85,-1.65 4.14,-2.75 2.3,-1.1 5.24,-3.24 6.53,-4.75 1.3,-1.51 2.81,-4.44 3.35,-6.5 0.58,-2.19 1,-20.69 1,-44.5 0.01,-27.72 -0.37,-42.43 -1.17,-46 -0.65,-2.89 -2.56,-7.27 -4.25,-9.74 -1.83,-2.68 -5.3,-5.82 -8.57,-7.75 -3.03,-1.79 -8.54,-3.93 -12.25,-4.76 -5.56,-1.23 -16.55,-1.5 -62.17,-1.5 h -55.42 z m 164.26,52 c 0,13.89 -0.45,26.94 -1,29 -0.55,2.06 -2.05,4.99 -3.35,6.5 -1.3,1.51 -4.24,3.65 -6.53,4.75 -2.3,1.1 -4.16,2.34 -4.15,2.75 0.02,0.41 1.27,1.23 2.79,1.82 1.51,0.59 4.21,2.17 6,3.5 1.86,1.4 3.9,4.24 4.79,6.68 1.31,3.64 1.49,10.78 1.25,49.75 -0.29,44.21 -0.35,45.61 -2.42,49.5 -1.17,2.2 -3.98,5.69 -6.25,7.75 -2.27,2.06 -5.81,4.44 -7.87,5.29 -2.07,0.85 -6.57,2.2 -10,3 -3.44,0.8 -7.83,1.46 -9.75,1.46 h -3.5 c 0.48,37.02 0.67,38.83 2.75,42.75 1.23,2.34 3.71,5.63 5.5,7.31 1.78,1.68 4.82,3.87 6.75,4.87 1.92,1 6.42,2.54 10,3.43 5.71,1.43 15.92,1.63 84.25,1.63 l 77.75,0.01 c 0,-120.12 0.11,-155.34 0.25,-155.75 0.13,-0.41 -18.54,-0.86 -41.5,-1 L 564.01,428 v 93 l -20.04,-0.5 v -127 l 20.04,-0.5 v 11 h 83.5 c -1,-54.4 -1.01,-54.52 -3.62,-59 -1.44,-2.48 -4.14,-5.81 -6,-7.41 -1.86,-1.6 -5.41,-3.81 -7.88,-4.92 -2.48,-1.11 -7.65,-2.59 -11.5,-3.29 -5.1,-0.93 -22.2,-1.29 -62.75,-1.33 L 500.01,328 Z"
       style="display:inline" />
    <path
       id="Path 4"
       class="s1"
       d="m 376.53,332.63 c -0.47,0.39 -0.79,9.18 -0.7,19.54 L 376,371 l 20.5,-0.5 v -38 c -14.8,-0.44 -19.49,-0.25 -19.97,0.13 z M 376,441.5 V 461 l 20.5,-0.5 0.47,-38.5 H 376 Z"
       style="display:inline" />
  </g>
  <text
     xml:space="preserve"
     id="text1"
     style="font-size:42.6667px;text-align:start;writing-mode:lr-tb;direction:ltr;white-space:pre;shape-inside:url(#rect1);display:none;fill:#000000"
     transform="matrix(1,-0.00523604,0,1,13.274592,-13.93604)"><tspan
       x="297.06055"
       y="507.56525"
       id="tspan4"><tspan
         style="font-size:40px;font-family:'Allerta Stencil';-inkscape-font-specification:'Allerta Stencil'"
         id="tspan1">2018</tspan></tspan></text>
  <ellipse
     style="display:inline;fill:#ffd700;fill-opacity:0;stroke:#ffd800;stroke-width:12;stroke-dasharray:none;stroke-opacity:1"
     id="path1"
     cx="361.80176"
     cy="361.14282"
     rx="355.80176"
     ry="355.14282" />
</svg>
